<?xml version="1.0"?>
<svg width="476.951" height="109.296" xmlns="http://www.w3.org/2000/svg" xmlns:svg="http://www.w3.org/2000/svg">
 <g>
  <title>Layer 1</title>
  <g id="Calque_1">
   <g id="svg_1">
    <text id="svg_2" font-size="92" font-family="&#x27;LeckerliOne'" transform="matrix(1,0,0,1,196.998,80.4999) ">School</text>
    <g id="svg_3">
     <path id="svg_4" d="m2.686,78.528999l36.474,0l0,2.637001l-39.16,0l0,-71.094001l2.686,0l0,68.457z"/>
    </g>
    <g id="svg_5">
     <path id="svg_6" d="m56.625999,81.167l-2.635998,0l0,-71.094l2.637001,0l0,71.094l-0.001003,0z"/>
    </g>
    <g id="svg_7">
     <path id="svg_8" d="m98.785004,74.233002l1.269997,3.857002l0.293007,0l1.269997,-3.857002l23.876999,-64.160004l2.881004,0l-26.563004,71.094002l-3.223,0l-26.563004,-71.094l2.880997,0l23.877007,64.160002z"/>
    </g>
    <g id="svg_9">
     <path id="svg_10" d="m182.291,45.444l-35.645004,0l0,33.106003l40.625,0l0,2.637001l-43.261002,0l0,-71.094004l43.262009,0l0,2.636999l-40.625,0l0,30.077999l35.644989,0l0,2.636002l-0.000992,0z"/>
    </g>
   </g>
  </g>
  <g id="Calque_2"/>
 </g>
</svg>